<?xml version="1.0" encoding="UTF-8" standalone="no"?>
<!DOCTYPE svg PUBLIC "-//W3C//DTD SVG 1.1//EN" "http://www.w3.org/Graphics/SVG/1.1/DTD/svg11.dtd">
<svg width="100%" height="100%" viewBox="0 0 792 538" version="1.1" xmlns="http://www.w3.org/2000/svg" xmlns:xlink="http://www.w3.org/1999/xlink" xml:space="preserve" xmlns:serif="http://www.serif.com/" style="fill-rule:evenodd;clip-rule:evenodd;stroke-linejoin:round;stroke-miterlimit:2;">
    <defs>
    <radialGradient id="cosmos_radial" cx="50%" cy="50%" r="50%">
      <stop offset="0%" style="stop-color:rgb(0,168,245);stop-opacity:1" />
      <stop offset="100%" style="stop-color:rgb(50,124,230);stop-opacity:1" />
    </radialGradient>
  </defs>
    <g id="Background" transform="matrix(1,0,0,1,5,1)">
        <path d="M782.013,339.487C781.872,342.633 782.715,343.94 779.52,343.966C773.738,344.013 612.693,343.87 604.509,344.038C599.418,344.143 605.107,334.812 606.301,284.497C606.305,284.348 607.208,280.908 607.079,268.518C607.009,261.918 606.309,262.065 606.095,255.514C605.815,246.942 605.153,247.048 605.272,238.492C605.274,238.358 602.016,202.059 597.505,188.498C588.687,161.989 584.591,158.163 563.375,141.667C558.574,137.935 538.381,132.309 532.471,131.906C514.49,130.678 514.487,130.809 274.5,130.809C245.11,130.809 189.769,132.066 180.867,219.529C180.388,224.23 177.795,239.383 177.812,274.498C177.821,292.516 178.774,292.437 178.959,310.49C178.988,313.351 180.741,330.948 180.958,332.449C182.069,340.137 184.244,340.655 181.516,343.515C180.55,344.527 76.198,343.655 5.501,344.035C0.966,344.059 2.097,341.665 2.096,323.5C2.092,258.936 2.325,172.775 2.356,172.488C4.6,152.092 -1.337,99.423 15.339,77.388C18.031,73.832 20.041,64.282 38.857,45.862C62.474,22.741 116.114,2.057 152.5,2.034C191.782,2.01 635.338,1.733 643.52,2.186C644.784,2.255 682.471,8.912 706.328,20.842C726.782,31.069 730.405,34.257 732.201,35.837C735.152,38.433 749.179,47.726 758.207,59.699C763.708,66.994 777.058,89.968 779.693,107.47C781.896,122.104 781.966,127.686 781.966,218.5C781.966,322.188 781.951,335.543 782.013,339.487Z" style="fill:url(#cosmos_radial);fill-opacity:1;"/>
        <path d="M647.5,536.999L554.5,536.999C556.879,528.172 578.34,467.399 582.023,456.342C592.487,424.932 589.29,422.665 595.447,419.401C598.498,417.784 598.679,418.094 743.5,418.094C777.192,418.094 781.293,416.862 780.831,424.531C780.676,427.103 773.913,442.656 768.842,451.68C726.76,526.557 653.232,534.437 648.558,535.929C648.08,536.081 647.978,536.847 647.5,536.999Z" style="fill:url(#cosmos_radial);fill-opacity:1;"/>
        <path d="M229.5,536.999L138.5,536.999C138.022,536.849 137.921,536.079 137.443,535.929C136.668,535.685 112.767,534.268 80.304,515.867C75.217,512.983 63.511,505.826 57.352,500.682C56.64,500.087 52.339,497.522 47.809,493.178C44.408,489.917 43.778,490.602 41.127,486.758C40.101,485.271 38.911,486.268 26.797,469.311C22.897,463.853 0.448,426.307 4.493,420.496C6.399,417.758 7.253,418.094 103.5,418.094C186.679,418.094 186.993,417.814 190.172,419.896C194.31,422.608 195.275,434.936 200.464,449.513C201.397,452.136 200.631,452.351 211.218,482.609C228.936,533.246 229.552,533.172 229.5,536.999Z" style="fill:url(#cosmos_radial);fill-opacity:1;"/>
        <path d="M440.5,536.999L344.5,536.999C341.259,529.617 329.699,503.289 309.54,442.485C303.218,423.417 300.025,418.335 309.495,418.098C309.708,418.092 475.187,418.09 475.507,418.099C484.624,418.337 480.206,426.534 477.494,434.498C445.167,529.428 443.211,528.714 440.5,536.999Z" style="fill:url(#cosmos_radial);fill-opacity:1;"/>
    </g>
</svg>
