<?xml version="1.0" encoding="UTF-8"?>
<!-- Generator: visioncortex VTracer 0.6.3 -->
<svg version="1.1" xmlns="http://www.w3.org/2000/svg" width="300" height="200">
<path d="M0,0 L9,0 L9,1 L10,1 L10,2 L11,2 L11,4 L12,4 L12,5 L13,5 L13,6 L14,6 L14,8 L15,8 L15,9 L16,9 L16,10 L17,10 L17,11 L19,11 L19,10 L20,10 L20,9 L21,9 L21,8 L22,8 L22,6 L23,6 L23,5 L24,5 L24,4 L25,4 L25,2 L26,2 L26,1 L27,1 L27,0 L36,0 L36,16 L28,16 L28,10 L27,10 L27,11 L26,11 L26,13 L25,13 L25,14 L24,14 L24,16 L12,16 L12,14 L11,14 L11,13 L10,13 L10,12 L9,12 L9,10 L8,10 L8,16 L0,16 Z " fill="#000000" transform="translate(141,91)"/>
<path d="M0,0 L29,0 L29,7 L2,7 L2,8 L1,8 L1,9 L2,9 L2,10 L24,10 L24,11 L26,11 L26,12 L28,12 L28,14 L29,14 L29,16 L0,16 L0,15 L-2,15 L-2,14 L-3,14 L-3,12 L-4,12 L-4,10 L-5,10 L-5,6 L-4,6 L-4,4 L-3,4 L-3,2 L-2,2 L-2,1 L0,1 Z " fill="#000000" transform="translate(236,91)"/>
<path d="M0,0 L29,0 L29,7 L1,7 L1,9 L2,9 L2,10 L24,10 L24,11 L26,11 L26,12 L27,12 L27,13 L28,13 L28,14 L29,14 L29,16 L0,16 L0,15 L-2,15 L-2,14 L-3,14 L-3,13 L-4,13 L-4,10 L-5,10 L-5,6 L-4,6 L-4,3 L-3,3 L-3,2 L-2,2 L-2,1 L0,1 Z " fill="#000000" transform="translate(103,91)"/>
<path d="M0,0 L28,0 L28,1 L30,1 L30,2 L31,2 L31,4 L32,4 L32,16 L23,16 L23,15 L24,15 L24,10 L23,10 L23,7 L22,7 L22,6 L5,6 L5,7 L4,7 L4,16 L-5,16 L-5,4 L-4,4 L-4,2 L-2,2 L-2,1 L0,1 Z " fill="#5B7DD3" transform="translate(191,91)"/>
<path d="M0,0 L23,0 L23,1 L25,1 L25,2 L27,2 L27,4 L28,4 L28,5 L29,5 L29,16 L21,16 L21,8 L20,8 L20,7 L19,7 L19,6 L4,6 L4,7 L3,7 L3,8 L2,8 L2,16 L-5,16 L-5,4 L-4,4 L-4,3 L-3,3 L-3,2 L-2,2 L-2,1 L0,1 Z " fill="#000000" transform="translate(60,91)"/>
<path d="M0,0 L29,0 L29,6 L5,6 L5,7 L4,7 L4,8 L3,8 L3,16 L-5,16 L-5,5 L-4,5 L-4,3 L-3,3 L-3,2 L-2,2 L-2,1 L0,1 Z " fill="#000000" transform="translate(16,91)"/>

<path d="M0,0 L35,0 L35,6 L6,6 L6,5 L3,5 L3,4 L2,4 L2,3 L1,3 L1,1 L0,1 Z " fill="#000000" transform="translate(11,110)"/>
<path d="M0,0 L34,0 L34,2 L33,2 L33,3 L32,3 L32,4 L31,4 L31,5 L29,5 L29,6 L0,6 Z " fill="#000000" transform="translate(232,110)"/>
<path d="M0,0 L34,0 L34,0 L33,1 L33,3 L32,3 L32,4 L31,4 L31,5 L29,5 L29,6 L0,6 Z " fill="#000000" transform="translate(99,110)"/>
<path d="M0,0 L35,0 L35,0 L34,1 L34,3 L33,3 L33,4 L31,4 L31,5 L29,5 L29,6 L6,6 L6,5 L4,5 L4,4 L2,4 L2,3 L1,3 L1,1 L0,0 Z " fill="#000000" transform="translate(54,110)"/>

<path d="M0,0 L8,0 L8,1 L9,1 L9,6 L8,6 L8,7 L0,7 Z M2,2 L2,5 L7,5 L7,2 Z " fill="#000000" transform="translate(279,83)"/>
<path d="M0,0 L8,0 L8,6 L0,6 Z " fill="#000000" transform="translate(169,110)"/>
<path d="M0,0 L8,0 L8,6 L0,6 Z " fill="#000000" transform="translate(141,110)"/>
<path d="M0,0 L9,0 L9,1 L10,1 L10,4 L11,4 L11,6 L6,6 L6,5 L4,5 L4,4 L2,4 L2,3 L1,3 L1,1 L0,1 Z " fill="#54A4DC" transform="translate(186,110)"/>
<path d="M0,0 L9,0 L9,1 L8,1 L8,3 L7,3 L7,4 L6,4 L6,5 L3,5 L3,6 L-2,6 L-2,5 L-1,5 L-1,2 L0,2 Z " fill="#52A1D9" transform="translate(214,110)"/>
<path d="M0,0 L9,0 L9,1 L8,1 L8,4 L7,4 L7,6 L2,6 L2,4 L1,4 L1,1 L0,1 Z " fill="#56A0DC" transform="translate(200,110)"/>
<path d="M0,0 L7,0 L7,1 L8,1 L8,3 L7,3 L7,4 L8,4 L8,6 L7,6 L7,7 L0,7 L0,5 L6,5 L6,4 L1,4 L1,3 L6,3 L6,2 L0,2 Z " fill="#000000" transform="translate(270,83)"/>
</svg>



