<?xml version="1.0" encoding="UTF-8"?>
<svg xmlns="http://www.w3.org/2000/svg" width="480" height="480" viewBox="0 0 480 480">
  <defs>
    <linearGradient id="cosmos_grad" x1="0%" y1="0%" x2="100%" y2="100%">
      <stop offset="0%" style="stop-color:rgb(50,124,230);stop-opacity:1"/>
      <stop offset="100%" style="stop-color:rgb(0,168,245);stop-opacity:1"/>
    </linearGradient>
    <clipPath id="logoClip">
      <rect x="158" y="62" width="164" height="164" rx="24" ry="24"/>
    </clipPath>
  </defs>
  <rect x="158" y="62" width="164" height="164" rx="24" ry="24" style="fill:#E9E9E9;"/>
  <g style="clip-path:url(#logoClip);">
    <g transform="translate(166.1,93.3) scale(0.189)">
      <g transform="translate(5,1)">
        <path d="M782.013,339.487C781.872,342.633 782.715,343.94 779.52,343.966C773.738,344.013 612.693,343.87 604.509,344.038C599.418,344.143 605.107,334.812 606.301,284.497C606.305,284.348 607.208,280.908 607.079,268.518C607.009,261.918 606.309,262.065 606.095,255.514C605.815,246.942 605.153,247.048 605.272,238.492C605.274,238.358 602.016,202.059 597.505,188.498C588.687,161.989 584.591,158.163 563.375,141.667C558.574,137.935 538.381,132.309 532.471,131.906C514.49,130.678 514.487,130.809 274.5,130.809C245.11,130.809 189.769,132.066 180.867,219.529C180.388,224.23 177.795,239.383 177.812,274.498C177.821,292.516 178.774,292.437 178.959,310.49C178.988,313.351 180.741,330.948 180.958,332.449C182.069,340.137 184.244,340.655 181.516,343.515C180.55,344.527 76.198,343.655 5.501,344.035C0.966,344.059 2.097,341.665 2.096,323.5C2.092,258.936 2.325,172.775 2.356,172.488C4.6,152.092 -1.337,99.423 15.339,77.388C18.031,73.832 20.041,64.282 38.857,45.862C62.474,22.741 116.114,2.057 152.5,2.034C191.782,2.01 635.338,1.733 643.52,2.186C644.784,2.255 682.471,8.912 706.328,20.842C726.782,31.069 730.405,34.257 732.201,35.837C735.152,38.433 749.179,47.726 758.207,59.699C763.708,66.994 777.058,89.968 779.693,107.47C781.896,122.104 781.966,127.686 781.966,218.5C781.966,322.188 781.951,335.543 782.013,339.487Z" style="fill:url(#cosmos_grad);"/>
        <path d="M647.5,536.999L554.5,536.999C556.879,528.172 578.34,467.399 582.023,456.342C592.487,424.932 589.29,422.665 595.447,419.401C598.498,417.784 598.679,418.094 743.5,418.094C777.192,418.094 781.293,416.862 780.831,424.531C780.676,427.103 773.913,442.656 768.842,451.68C726.76,526.557 653.232,534.437 648.558,535.929C648.08,536.081 647.978,536.847 647.5,536.999Z" style="fill:url(#cosmos_grad);"/>
        <path d="M229.5,536.999L138.5,536.999C138.022,536.849 137.921,536.079 137.443,535.929C136.668,535.685 112.767,534.268 80.304,515.867C75.217,512.983 63.511,505.826 57.352,500.682C56.64,500.087 52.339,497.522 47.809,493.178C44.408,489.917 43.778,490.602 41.127,486.758C40.101,485.271 38.911,486.268 26.797,469.311C22.897,463.853 0.448,426.307 4.493,420.496C6.399,417.758 7.253,418.094 103.5,418.094C186.679,418.094 186.993,417.814 190.172,419.896C194.31,422.608 195.275,434.936 200.464,449.513C201.397,452.136 200.631,452.351 211.218,482.609C228.936,533.246 229.552,533.172 229.5,536.999Z" style="fill:url(#cosmos_grad);"/>
        <path d="M440.5,536.999L344.5,536.999C341.259,529.617 329.699,503.289 309.54,442.485C303.218,423.417 300.025,418.335 309.495,418.098C309.708,418.092 475.187,418.09 475.507,418.099C484.624,418.337 480.206,426.534 477.494,434.498C445.167,529.428 443.211,528.714 440.5,536.999Z" style="fill:url(#cosmos_grad);"/>
      </g>
    </g>
  </g>
  <g transform="translate(129.54,252.00) scale(1,-1)">
    <path d="M25.46,1.52 Q23.49,0.50 21.36,-0.02 Q19.23,-0.54 16.90,-0.54 Q9.98,-0.54 5.94,3.33 Q1.89,7.20 1.89,13.82 Q1.89,20.47 5.94,24.33 Q9.98,28.20 16.90,28.20 Q19.23,28.20 21.36,27.68 Q23.49,27.16 25.46,26.14 L25.46,20.41 Q23.47,21.77 21.54,22.40 Q19.61,23.03 17.48,23.03 Q13.66,23.03 11.47,20.57 Q9.28,18.13 9.28,13.82 Q9.28,9.54 11.47,7.08 Q13.66,4.64 17.48,4.64 Q19.61,4.64 21.54,5.27 Q23.47,5.90 25.46,7.26 L25.46,1.52 Z M40.97,16.53 Q38.76,16.53 37.60,14.94 Q36.44,13.36 36.44,10.37 Q36.44,7.39 37.60,5.79 Q38.76,4.21 40.97,4.21 Q43.14,4.21 44.29,5.79 Q45.44,7.39 45.44,10.37 Q45.44,13.36 44.29,14.94 Q43.14,16.53 40.97,16.53 Z M40.97,21.28 Q46.33,21.28 49.35,18.38 Q52.36,15.49 52.36,10.37 Q52.36,5.25 49.35,2.35 Q46.33,-0.54 40.97,-0.54 Q35.59,-0.54 32.55,2.35 Q29.52,5.25 29.52,10.37 Q29.52,15.49 32.55,18.38 Q35.59,21.28 40.97,21.28 Z M73.42,20.13 L73.42,15.09 Q71.29,15.98 69.30,16.42 Q67.32,16.87 65.55,16.87 Q63.66,16.87 62.74,16.39 Q61.83,15.92 61.83,14.94 Q61.83,14.14 62.52,13.71 Q63.22,13.29 65.01,13.08 L66.18,12.91 Q71.29,12.27 73.05,10.78 Q74.81,9.30 74.81,6.12 Q74.81,2.80 72.36,1.13 Q69.91,-0.54 65.06,-0.54 Q63.00,-0.54 60.79,-0.21 Q58.60,0.11 56.27,0.76 L56.27,5.81 Q58.26,4.84 60.35,4.36 Q62.44,3.88 64.59,3.88 Q66.54,3.88 67.52,4.41 Q68.51,4.95 68.51,6.01 Q68.51,6.91 67.83,7.34 Q67.15,7.77 65.13,8.02 L63.96,8.16 Q59.52,8.72 57.74,10.22 Q55.96,11.73 55.96,14.79 Q55.96,18.09 58.22,19.68 Q60.49,21.28 65.16,21.28 Q67.00,21.28 69.02,21.00 Q71.05,20.73 73.42,20.13 Z M99.06,17.33 Q100.33,19.26 102.06,20.27 Q103.79,21.28 105.87,21.28 Q109.45,21.28 111.33,19.07 Q113.21,16.87 113.21,12.65 L113.21,0.00 L106.53,0.00 L106.53,10.84 Q106.54,11.08 106.55,11.33 Q106.56,11.60 106.56,12.08 Q106.56,14.29 105.91,15.28 Q105.26,16.27 103.81,16.27 Q101.92,16.27 100.89,14.71 Q99.86,13.16 99.82,10.21 L99.82,0.00 L93.14,0.00 L93.14,10.84 Q93.14,14.29 92.55,15.28 Q91.95,16.27 90.43,16.27 Q88.52,16.27 87.48,14.71 Q86.44,13.14 86.44,10.22 L86.44,0.00 L79.77,0.00 L79.77,20.78 L86.44,20.78 L86.44,17.74 Q87.67,19.50 89.26,20.39 Q90.84,21.28 92.76,21.28 Q94.91,21.28 96.56,20.24 Q98.21,19.20 99.06,17.33 Z M129.29,16.53 Q127.08,16.53 125.92,14.94 Q124.76,13.36 124.76,10.37 Q124.76,7.39 125.92,5.79 Q127.08,4.21 129.29,4.21 Q131.46,4.21 132.61,5.79 Q133.76,7.39 133.76,10.37 Q133.76,13.36 132.61,14.94 Q131.46,16.53 129.29,16.53 Z M129.29,21.28 Q134.65,21.28 137.67,18.38 Q140.68,15.49 140.68,10.37 Q140.68,5.25 137.67,2.35 Q134.65,-0.54 129.29,-0.54 Q123.91,-0.54 120.87,2.35 Q117.84,5.25 117.84,10.37 Q117.84,15.49 120.87,18.38 Q123.91,21.28 129.29,21.28 Z M161.74,20.13 L161.74,15.09 Q159.61,15.98 157.62,16.42 Q155.64,16.87 153.87,16.87 Q151.98,16.87 151.06,16.39 Q150.15,15.92 150.15,14.94 Q150.15,14.14 150.84,13.71 Q151.54,13.29 153.33,13.08 L154.50,12.91 Q159.61,12.27 161.37,10.78 Q163.13,9.30 163.13,6.12 Q163.13,2.80 160.68,1.13 Q158.23,-0.54 153.38,-0.54 Q151.32,-0.54 149.11,-0.21 Q146.92,0.11 144.59,0.76 L144.59,5.81 Q146.58,4.84 148.67,4.36 Q150.76,3.88 152.91,3.88 Q154.86,3.88 155.84,4.41 Q156.83,4.95 156.83,6.01 Q156.83,6.91 156.15,7.34 Q155.47,7.77 153.45,8.02 L152.28,8.16 Q147.84,8.72 146.06,10.22 Q144.28,11.73 144.28,14.79 Q144.28,18.09 146.54,19.68 Q148.81,21.28 153.48,21.28 Q155.32,21.28 157.34,21.00 Q159.37,20.73 161.74,20.13 Z M182.63,14.94 Q185.43,14.21 186.89,12.42 Q188.35,10.63 188.35,7.87 Q188.35,3.75 185.19,1.60 Q182.04,-0.54 175.99,-0.54 Q173.86,-0.54 171.71,-0.20 Q169.57,0.15 167.47,0.84 L167.47,6.35 Q169.48,5.34 171.45,4.83 Q173.43,4.32 175.34,4.32 Q178.18,4.32 179.69,5.30 Q181.21,6.29 181.21,8.13 Q181.21,10.02 179.66,11.00 Q178.11,11.97 175.08,11.97 L172.22,11.97 L172.22,16.57 L175.23,16.57 Q177.92,16.57 179.24,17.41 Q180.55,18.26 180.55,19.99 Q180.55,21.58 179.27,22.45 Q178.00,23.32 175.66,23.32 Q173.93,23.32 172.17,22.93 Q170.41,22.54 168.66,21.78 L168.66,27.02 Q170.78,27.61 172.85,27.91 Q174.93,28.20 176.94,28.20 Q182.34,28.20 185.01,26.43 Q187.70,24.66 187.70,21.10 Q187.70,18.67 186.41,17.12 Q185.14,15.57 182.63,14.94 Z M202.01,22.30 L202.01,5.40 L204.57,5.40 Q208.94,5.40 211.25,7.57 Q213.57,9.74 213.57,13.88 Q213.57,18.00 211.26,20.15 Q208.97,22.30 204.57,22.30 L202.01,22.30 Z M194.86,27.70 L202.39,27.70 Q208.70,27.70 211.79,26.80 Q214.88,25.91 217.09,23.75 Q219.04,21.87 219.98,19.42 Q220.93,16.98 220.93,13.88 Q220.93,10.74 219.98,8.28 Q219.04,5.82 217.09,3.95 Q214.86,1.80 211.74,0.90 Q208.63,0.00 202.39,0.00 L194.86,0.00 L194.86,27.70 Z" style="fill:#2D2D30;"/>
  </g>
  <g transform="translate(171.73,280.00) scale(1,-1)">
    <path d="M5.68,5.50 Q6.67,5.29 7.23,4.62 Q7.79,3.95 7.79,2.97 Q7.79,1.46 6.75,0.63 Q5.71,-0.20 3.79,-0.20 Q3.15,-0.20 2.47,-0.07 Q1.79,0.05 1.07,0.31 L1.07,1.64 Q1.64,1.31 2.32,1.14 Q3.01,0.96 3.75,0.96 Q5.05,0.96 5.73,1.48 Q6.41,1.99 6.41,2.97 Q6.41,3.87 5.78,4.38 Q5.15,4.89 4.02,4.89 L2.83,4.89 L2.83,6.02 L4.08,6.02 Q5.09,6.02 5.63,6.43 Q6.17,6.84 6.17,7.60 Q6.17,8.39 5.62,8.81 Q5.06,9.23 4.02,9.23 Q3.45,9.23 2.80,9.10 Q2.15,8.98 1.37,8.72 L1.37,9.95 Q2.16,10.17 2.85,10.28 Q3.54,10.39 4.14,10.39 Q5.72,10.39 6.63,9.68 Q7.55,8.96 7.55,7.75 Q7.55,6.90 7.06,6.31 Q6.58,5.73 5.68,5.50 Z M11.66,9.07 L11.66,1.14 L13.33,1.14 Q15.44,1.14 16.42,2.09 Q17.40,3.05 17.40,5.11 Q17.40,7.16 16.42,8.12 Q15.44,9.07 13.33,9.07 L11.66,9.07 Z M10.28,10.21 L13.12,10.21 Q16.08,10.21 17.47,8.97 Q18.86,7.74 18.86,5.11 Q18.86,2.47 17.46,1.24 Q16.07,0.00 13.12,0.00 L10.28,0.00 L10.28,10.21 Z M26.89,9.07 L26.89,5.24 L28.63,5.24 Q29.59,5.24 30.12,5.74 Q30.65,6.23 30.65,7.16 Q30.65,8.07 30.12,8.57 Q29.59,9.07 28.63,9.07 L26.89,9.07 Z M25.51,10.21 L28.63,10.21 Q30.35,10.21 31.22,9.43 Q32.10,8.65 32.10,7.16 Q32.10,5.65 31.22,4.87 Q30.35,4.10 28.63,4.10 L26.89,4.10 L26.89,0.00 L25.51,0.00 L25.51,10.21 Z M38.09,6.48 Q37.88,6.60 37.63,6.66 Q37.38,6.72 37.08,6.72 Q36.01,6.72 35.44,6.03 Q34.87,5.33 34.87,4.03 L34.87,0.00 L33.61,0.00 L33.61,7.66 L34.87,7.66 L34.87,6.47 Q35.27,7.16 35.90,7.50 Q36.54,7.84 37.45,7.84 Q37.58,7.84 37.74,7.82 Q37.89,7.81 38.08,7.77 L38.09,6.48 Z M39.41,7.66 L40.67,7.66 L40.67,0.00 L39.41,0.00 L39.41,7.66 Z M39.41,10.64 L40.67,10.64 L40.67,9.04 L39.41,9.04 L39.41,10.64 Z M49.67,4.62 L49.67,0.00 L48.41,0.00 L48.41,4.58 Q48.41,5.67 47.98,6.21 Q47.56,6.75 46.71,6.75 Q45.69,6.75 45.10,6.10 Q44.52,5.45 44.52,4.33 L44.52,0.00 L43.25,0.00 L43.25,7.66 L44.52,7.66 L44.52,6.47 Q44.97,7.16 45.58,7.50 Q46.19,7.84 46.99,7.84 Q48.31,7.84 48.99,7.02 Q49.67,6.21 49.67,4.62 Z M53.42,9.83 L53.42,7.66 L56.01,7.66 L56.01,6.68 L53.42,6.68 L53.42,2.52 Q53.42,1.59 53.67,1.32 Q53.93,1.05 54.72,1.05 L56.01,1.05 L56.01,0.00 L54.72,0.00 Q53.26,0.00 52.71,0.54 Q52.15,1.09 52.15,2.52 L52.15,6.68 L51.23,6.68 L51.23,7.66 L52.15,7.66 L52.15,9.83 L53.42,9.83 Z M57.66,7.66 L58.92,7.66 L58.92,0.00 L57.66,0.00 L57.66,7.66 Z M57.66,10.64 L58.92,10.64 L58.92,9.04 L57.66,9.04 L57.66,10.64 Z M67.92,4.62 L67.92,0.00 L66.66,0.00 L66.66,4.58 Q66.66,5.67 66.24,6.21 Q65.81,6.75 64.96,6.75 Q63.94,6.75 63.36,6.10 Q62.77,5.45 62.77,4.33 L62.77,0.00 L61.50,0.00 L61.50,7.66 L62.77,7.66 L62.77,6.47 Q63.22,7.16 63.83,7.50 Q64.44,7.84 65.24,7.84 Q66.56,7.84 67.24,7.02 Q67.92,6.21 67.92,4.62 Z M75.46,3.92 Q75.46,5.29 74.90,6.04 Q74.34,6.79 73.32,6.79 Q72.31,6.79 71.74,6.04 Q71.18,5.29 71.18,3.92 Q71.18,2.56 71.74,1.80 Q72.31,1.05 73.32,1.05 Q74.34,1.05 74.90,1.80 Q75.46,2.56 75.46,3.92 Z M76.72,0.95 Q76.72,-1.00 75.85,-1.96 Q74.99,-2.91 73.19,-2.91 Q72.53,-2.91 71.94,-2.81 Q71.35,-2.71 70.80,-2.51 L70.80,-1.29 Q71.35,-1.59 71.89,-1.73 Q72.43,-1.87 72.99,-1.87 Q74.23,-1.87 74.85,-1.23 Q75.46,-0.58 75.46,0.72 L75.46,1.35 Q75.07,0.67 74.46,0.33 Q73.86,0.00 73.01,0.00 Q71.60,0.00 70.74,1.07 Q69.88,2.15 69.88,3.92 Q69.88,5.69 70.74,6.77 Q71.60,7.84 73.01,7.84 Q73.86,7.84 74.46,7.51 Q75.07,7.17 75.46,6.49 L75.46,7.66 L76.72,7.66 L76.72,0.95 Z M83.82,10.21 L90.27,10.21 L90.27,9.04 L85.20,9.04 L85.20,6.02 L90.06,6.02 L90.06,4.86 L85.20,4.86 L85.20,1.16 L90.39,1.16 L90.39,0.00 L83.82,0.00 L83.82,10.21 Z M91.71,7.66 L93.04,7.66 L95.43,1.23 L97.82,7.66 L99.16,7.66 L96.28,0.00 L94.58,0.00 L91.71,7.66 Z M103.86,6.77 Q102.85,6.77 102.26,5.99 Q101.67,5.20 101.67,3.82 Q101.67,2.45 102.26,1.66 Q102.84,0.87 103.86,0.87 Q104.86,0.87 105.45,1.66 Q106.04,2.45 106.04,3.82 Q106.04,5.18 105.45,5.98 Q104.86,6.77 103.86,6.77 Z M103.86,7.84 Q105.50,7.84 106.44,6.77 Q107.37,5.71 107.37,3.82 Q107.37,1.94 106.44,0.87 Q105.50,-0.20 103.86,-0.20 Q102.21,-0.20 101.28,0.87 Q100.35,1.94 100.35,3.82 Q100.35,5.71 101.28,6.77 Q102.21,7.84 103.86,7.84 Z M109.46,10.64 L110.72,10.64 L110.72,0.00 L109.46,0.00 L109.46,10.64 Z M112.45,7.66 L113.78,7.66 L116.17,1.23 L118.56,7.66 L119.90,7.66 L117.02,0.00 L115.32,0.00 L112.45,7.66 Z M128.18,4.14 L128.18,3.53 L122.40,3.53 Q122.48,2.23 123.18,1.55 Q123.88,0.87 125.13,0.87 Q125.86,0.87 126.54,1.05 Q127.22,1.22 127.89,1.58 L127.89,0.39 Q127.21,0.10 126.50,-0.05 Q125.79,-0.20 125.06,-0.20 Q123.23,-0.20 122.16,0.87 Q121.09,1.93 121.09,3.75 Q121.09,5.63 122.10,6.74 Q123.12,7.84 124.84,7.84 Q126.38,7.84 127.28,6.84 Q128.18,5.85 128.18,4.14 Z M126.92,4.51 Q126.91,5.54 126.35,6.16 Q125.78,6.77 124.85,6.77 Q123.80,6.77 123.17,6.18 Q122.54,5.58 122.44,4.50 L126.92,4.51 Z M135.28,6.49 L135.28,10.64 L136.54,10.64 L136.54,0.00 L135.28,0.00 L135.28,1.15 Q134.89,0.47 134.28,0.13 Q133.68,-0.20 132.83,-0.20 Q131.44,-0.20 130.57,0.91 Q129.70,2.02 129.70,3.82 Q129.70,5.63 130.57,6.73 Q131.44,7.84 132.83,7.84 Q133.68,7.84 134.28,7.51 Q134.89,7.18 135.28,6.49 Z M131.00,3.82 Q131.00,2.43 131.57,1.65 Q132.14,0.86 133.14,0.86 Q134.14,0.86 134.71,1.65 Q135.28,2.43 135.28,3.82 Q135.28,5.21 134.71,6.00 Q134.14,6.79 133.14,6.79 Q132.14,6.79 131.57,6.00 Q131.00,5.21 131.00,3.82 Z" style="fill:#949494;"/>
  </g>
</svg>